<?xml version="1.0" encoding="UTF-8" standalone="no"?>
<!DOCTYPE svg PUBLIC "-//W3C//DTD SVG 1.1//EN" "http://www.w3.org/Graphics/SVG/1.1/DTD/svg11.dtd">
<svg width="100%" height="100%" viewBox="0 0 138 167" version="1.1" xmlns="http://www.w3.org/2000/svg" xmlns:xlink="http://www.w3.org/1999/xlink" xml:space="preserve" xmlns:affinity="https://www.affinity.studio/" style="fill-rule:evenodd;clip-rule:evenodd;">
    <g id="Layer-1" affinity:id="Layer 1" transform="matrix(1,0,0,1,-99.0105,16.728207)">
        <path id="path14" d="M99.01,12.56L175.71,12.56L161.21,43.26L155.011,72.36L176.811,74.46L180.211,119.26L99.011,119.26L99.01,12.56Z" style="fill:rgb(77,102,204);fill-rule:nonzero;"/>
        <path id="path16" d="M175.511,12.56L236.211,12.56L236.211,119.26L179.711,119.26L177.511,73.36L154.711,73.76L159.911,43.16L175.511,12.56Z" style="fill:rgb(137,161,212);fill-rule:nonzero;"/>
        <path id="path18" d="M178.511,96.26C193.611,95.96 204.811,92.46 213.711,87.16" style="fill:none;fill-rule:nonzero;stroke:black;stroke-width:6.3px;"/>
        <path id="path20" d="M121.51,86.86C138.611,95.66 156.41,97.66 175.21,96.46" style="fill:none;fill-rule:nonzero;stroke:rgb(9,9,143);stroke-width:6.3px;"/>
        <path id="path22" d="M136.511,30.26L136.511,46.36" style="fill:none;fill-rule:nonzero;stroke:rgb(9,9,143);stroke-width:6.3px;"/>
        <path id="path24" d="M194.911,30.26L194.911,46.36" style="fill:none;fill-rule:nonzero;stroke:black;stroke-width:6.3px;"/>
        <path id="path26" d="M188.311,-3.74C171.311,16.36 156.611,42.66 155.01,73.36L180.011,73.36C173.711,94.26 177.11,117.66 186.711,136.56" style="fill:none;fill-rule:nonzero;stroke:black;stroke-width:6.3px;"/>
    </g>
</svg>
